<svg version="1.1" id="Layer_1" xmlns="http://www.w3.org/2000/svg" xmlns:xlink="http://www.w3.org/1999/xlink" x="0px" y="0px"
	 width="100%" viewBox="0 0 5000 5000" enable-background="new 0 0 5000 5000" xml:space="preserve">
<path fill="#161719" opacity="1.000000" stroke="none" 
	d="
M3396.000000,5004.000000 
	C2264.000000,5004.000000 1134.000000,5004.000000 4.000000,5004.000000 
	C4.000000,3337.333252 4.000000,1670.666626 4.000000,4.000001 
	C1670.666626,4.000000 3337.333252,4.000000 5004.000000,4.000000 
	C5004.000000,1670.666626 5004.000000,3337.333252 5004.000000,5004.000000 
	C4468.666504,5004.000000 3933.333252,5004.000000 3396.000000,5004.000000 
z"/>
<path fill="#FEFEFE" opacity="1.000000" stroke="none" 
	d="
M2761.888672,1178.589722 
	C2737.986572,1133.478027 2702.651855,1103.828857 2656.453857,1086.427246 
	C2624.378174,1074.345093 2591.058350,1068.041626 2557.192871,1064.745605 
	C2512.638672,1060.409424 2467.931152,1060.305908 2423.398438,1064.909424 
	C2347.827148,1072.721313 2275.927246,1093.584961 2207.656494,1127.104370 
	C2096.081299,1181.885254 2007.189697,1262.367920 1937.762451,1364.860596 
	C1868.652344,1466.885254 1820.961670,1578.362793 1792.211670,1698.038208 
	C1775.216309,1768.783569 1764.514648,1840.499634 1759.078247,1913.065674 
	C1753.842651,1982.951538 1751.588867,2052.860596 1756.119751,2122.840088 
	C1761.708618,2209.162109 1777.797119,2293.307129 1812.218384,2373.103027 
	C1877.371094,2524.140625 1988.737427,2625.681641 2143.604004,2679.940430 
	C2196.606934,2698.510498 2251.240234,2709.974121 2306.978027,2716.688232 
	C2350.728760,2721.958496 2394.581299,2724.228271 2438.626221,2724.331787 
	C2531.366943,2724.549316 2621.586670,2708.746094 2710.161865,2682.324463 
	C2745.905029,2671.662354 2780.964355,2659.031006 2815.622559,2645.207520 
	C2822.984619,2642.270996 2826.145508,2638.122314 2826.937988,2630.752197 
	C2829.786865,2604.253906 2832.809082,2577.773926 2835.846436,2551.296143 
	C2840.705322,2508.935059 2845.668701,2466.586426 2850.511963,2424.223633 
	C2854.372070,2390.462402 2858.144287,2356.691650 2861.895508,2322.918213 
	C2862.740723,2315.307373 2861.181885,2313.525879 2853.419922,2313.220459 
	C2848.094482,2313.010742 2842.755127,2313.141357 2837.422119,2313.141113 
	C2756.090820,2313.136963 2674.759277,2313.129639 2593.427979,2313.140381 
	C2574.068604,2313.142822 2554.781006,2312.515625 2535.821289,2307.970215 
	C2524.122314,2305.165771 2512.796143,2301.384277 2501.957520,2296.131836 
	C2473.540771,2282.361084 2453.990967,2260.701416 2443.977295,2230.695801 
	C2434.349121,2201.845947 2431.606689,2172.082031 2433.761475,2141.923340 
	C2434.659912,2129.349854 2436.225098,2116.798096 2439.339600,2104.413330 
	C2455.380371,2040.627319 2503.493896,2000.539185 2569.404297,1996.620361 
	C2574.058105,1996.343506 2578.732910,1996.343018 2583.397949,1996.342529 
	C2748.727295,1996.328491 2914.056641,1996.362183 3079.385986,1996.278076 
	C3095.498535,1996.269897 3111.274414,1997.994263 3126.708008,2002.699219 
	C3179.067139,2018.660889 3210.119873,2058.230225 3213.054443,2112.637939 
	C3213.919678,2128.681152 3213.075439,2144.703857 3211.023926,2160.540283 
	C3202.723145,2224.618652 3194.140381,2288.662842 3185.227539,2352.659180 
	C3176.958008,2412.034424 3168.193604,2471.341064 3159.541748,2530.662598 
	C3150.793945,2590.643311 3141.880371,2650.599609 3133.138916,2710.581055 
	C3131.994141,2718.436279 3131.440918,2726.377441 3130.580322,2734.598145 
	C3137.487305,2736.634277 3140.710205,2731.601318 3144.548096,2728.802979 
	C3204.855957,2684.833008 3264.868896,2640.455322 3325.365479,2596.747314 
	C3387.482178,2551.868896 3450.605469,2508.416748 3514.277588,2465.768311 
	C3529.302246,2455.705078 3545.032227,2447.214600 3562.684082,2442.587158 
	C3594.153320,2434.337646 3619.301025,2444.029297 3636.745850,2471.336426 
	C3646.592041,2486.749268 3652.533691,2503.752686 3655.260498,2521.624756 
	C3660.439453,2555.570801 3658.956055,2589.473389 3651.264648,2622.927246 
	C3645.936279,2646.104004 3634.548340,2666.296143 3618.520020,2683.884033 
	C3606.312988,2697.278809 3592.267090,2708.432861 3577.221436,2718.433350 
	C3414.622559,2826.511475 3253.826904,2937.239258 3093.049072,3047.992676 
	C3090.854492,3049.504395 3088.717041,3051.136475 3086.386230,3052.406250 
	C3078.185547,3056.872803 3074.226318,3063.714844 3072.457520,3072.920654 
	C3064.669189,3113.459473 3056.775391,3153.986572 3048.179688,3194.360596 
	C3011.125488,3368.399414 2966.006592,3540.191650 2904.103027,3707.255127 
	C2873.068359,3791.010742 2837.893066,3872.949707 2795.510010,3951.650635 
	C2766.041992,4006.368896 2732.150635,4058.132812 2690.879639,4104.820801 
	C2667.856445,4130.865234 2642.779785,4154.708008 2615.052734,4175.729004 
	C2564.828613,4213.806641 2509.169434,4239.785156 2446.783203,4250.102539 
	C2380.428955,4261.077148 2314.784668,4257.999512 2252.314209,4231.733887 
	C2157.531738,4191.882324 2100.005859,4120.479492 2079.755859,4019.454102 
	C2070.340576,3972.482178 2071.762207,3925.234619 2077.839111,3878.119873 
	C2091.462646,3772.490723 2129.971924,3676.221680 2188.516846,3587.604004 
	C2234.949463,3517.320068 2288.470703,3452.706787 2345.400391,3390.821289 
	C2417.278809,3312.686035 2495.389648,3241.091553 2575.918701,3172.063232 
	C2637.166992,3119.562256 2699.813721,3068.765625 2763.885254,3019.764404 
	C2773.767578,3012.206543 2779.357666,3004.049072 2780.022461,2991.800049 
	C2780.381348,2985.191406 2782.232910,2978.675537 2783.130371,2972.079590 
	C2783.646729,2968.282471 2785.176025,2964.281982 2782.218750,2960.609863 
	C2775.989990,2960.536621 2770.875977,2964.040039 2765.385498,2966.228516 
	C2685.925049,2997.901855 2604.205322,3021.703125 2519.647461,3034.848877 
	C2451.656006,3045.419189 2383.210449,3049.316895 2314.350586,3045.751221 
	C2273.730713,3043.648193 2233.183838,3041.144775 2192.827393,3035.987061 
	C2036.745117,3016.039551 1890.189087,2968.646484 1757.617554,2882.493896 
	C1583.121704,2769.095947 1466.580200,2611.485352 1403.948242,2413.582275 
	C1381.955811,2344.091797 1369.138306,2272.764893 1363.222656,2200.118408 
	C1357.148315,2125.523926 1358.456299,2050.972656 1362.718506,1976.360596 
	C1365.838135,1921.752319 1371.599731,1867.451416 1380.022339,1813.434204 
	C1416.059082,1582.317139 1497.988647,1369.900635 1641.012207,1183.377563 
	C1780.026978,1002.082520 1958.660034,875.799622 2176.525635,805.945312 
	C2242.654297,784.742493 2310.474609,771.223572 2379.500488,763.215454 
	C2442.590088,755.896179 2505.828857,754.004944 2569.156494,756.549133 
	C2653.385742,759.932983 2736.242920,771.981873 2816.155029,800.233521 
	C2911.086670,833.795166 2989.869385,889.392090 3049.604736,971.066711 
	C3094.896729,1032.993042 3122.590088,1102.292358 3135.727295,1177.556519 
	C3147.740967,1246.383789 3147.850830,1315.585938 3139.249268,1384.719604 
	C3133.384033,1431.857910 3121.541748,1477.562988 3100.209229,1520.394775 
	C3092.470215,1535.932983 3083.670166,1550.813354 3073.254395,1564.728027 
	C3038.791016,1610.768311 2992.674561,1635.355469 2935.477295,1639.031494 
	C2906.626465,1640.885864 2878.230469,1637.703369 2850.729492,1628.394653 
	C2843.814697,1626.054077 2836.959473,1623.332153 2830.439209,1620.063232 
	C2784.293213,1596.927856 2760.857178,1559.281860 2761.039062,1507.807373 
	C2761.102295,1489.904297 2763.427002,1471.890625 2766.127441,1454.141724 
	C2770.834473,1423.206909 2776.728760,1392.454224 2781.953369,1361.596069 
	C2789.474121,1317.174194 2790.835938,1272.826172 2780.207520,1228.607422 
	C2776.141602,1211.691650 2770.278076,1195.476196 2761.888672,1178.589722 
z"/>
<path fill="#18191B" opacity="1.000000" stroke="none" 
	d="
M2469.592773,3969.752441 
	C2455.424072,3981.223877 2441.473389,3989.946533 2424.660889,3993.487305 
	C2390.595459,4000.660889 2360.326172,3985.035400 2346.818359,3952.855225 
	C2339.486816,3935.389404 2337.068115,3916.906738 2336.541016,3898.198242 
	C2335.478271,3860.481445 2342.679443,3824.042480 2354.340088,3788.343018 
	C2372.048340,3734.127197 2398.900391,3684.456787 2429.805176,3636.840332 
	C2468.414551,3577.352051 2514.447021,3523.868164 2563.520996,3472.911133 
	C2609.317383,3425.356934 2657.675781,3380.505615 2707.686035,3337.426025 
	C2710.658691,3334.865479 2713.155518,3331.471924 2718.466553,3330.708740 
	C2720.187256,3335.842285 2717.408447,3340.529297 2716.451172,3345.183105 
	C2696.463867,3442.355225 2673.233398,3538.721191 2644.194092,3633.625732 
	C2626.069580,3692.857910 2605.609131,3751.240723 2579.271973,3807.388672 
	C2562.285156,3843.602783 2542.944824,3878.542480 2520.188477,3911.504883 
	C2505.765137,3932.396484 2490.051758,3952.196045 2469.592773,3969.752441 
z"/>
</svg>